<?xml version="1.0" encoding="utf-8"?>
<!-- Generator: Adobe Illustrator 16.0.0, SVG Export Plug-In . SVG Version: 6.00 Build 0)  -->
<svg version="1.2" baseProfile="tiny" id="Layer_1" xmlns="http://www.w3.org/2000/svg" xmlns:xlink="http://www.w3.org/1999/xlink"
	 x="0px" y="0px" width="684px" height="118.35px" viewBox="0 0 684 118.35" xml:space="preserve">
<rect x="-133.5" y="60.21" fill="none" width="947" height="153"/>
<text transform="matrix(0.9671 0 0 1 6.4702 111.2632)" font-family="'Emmett'" font-size="68.1634">Hardcore</text>
<text transform="matrix(0.9671 0 0 1 289.0732 111.2632)" font-family="'SonsieOne-Regular'" font-size="68.1634">Parkour</text>
<g>
	<path fill="none" stroke="#000000" stroke-miterlimit="10" d="M31.33,54.02c0,0,0.72-0.73,2.07-1.93"/>
	<path fill="none" stroke="#000000" stroke-miterlimit="10" stroke-dasharray="5.6435,5.6435" d="M37.73,48.48
		c15.55-12.17,57.17-37.17,100.06,1.64"/>
	<path fill="none" stroke="#000000" stroke-miterlimit="10" d="M139.87,52.04c0.68,0.64,1.35,1.3,2.03,1.98c0,0,0.72-0.7,2.09-1.91"
		/>
	<path fill="none" stroke="#000000" stroke-miterlimit="10" stroke-dasharray="5.789,5.789" d="M148.4,48.37
		c22.42-18.19,99.33-70.03,175.55,1.65"/>
	<path fill="none" stroke="#000000" stroke-miterlimit="10" d="M326.05,52.03c0.67,0.65,1.35,1.32,2.02,1.99"/>
</g>
<g>
	<path fill-rule="evenodd" fill="none" d="M326.75,60.7c12.22,0,24.44,0,36.66,0.01c0.32,0,0.36-0.09,0.36-0.38
		c-0.01-19.99-0.01-39.98,0-59.96c0-0.32-0.09-0.36-0.38-0.36c-24.44,0.01-48.88,0.01-73.32,0c-0.32,0-0.36,0.09-0.36,0.38
		c0.01,19.99,0.01,39.98,0,59.96c0,0.32,0.09,0.36,0.38,0.36C302.31,60.69,314.53,60.7,326.75,60.7z"/>
	<path fill-rule="evenodd" d="M338.94,24.08"/>
	<path d="M336.09,31.7c0.12,0.02,0.49,0.16,0.62,0.17c0.06,0,0.09,0.04,0.14,0.06c0.09-0.04,0.21-0.02,0.31-0.02
		c1.05-0.05,2.09,0.05,3.13,0.09c0.41,0.01,0.59-0.13,0.71-0.51c0.57-1.77,1.17-3.54,1.78-5.3c0.11-0.31,0.04-0.46-0.26-0.58
		l-9.91-4.13c-0.84-0.38-1.69-0.68-2.61-0.74c-0.21-0.01-0.45-0.03-0.55-0.32c-0.03-0.09-0.22-0.13-0.38-0.23
		c0.55-0.32,1.08-0.66,1.63-0.94c0.39-0.2,0.52-0.42,0.45-0.89c-0.13-0.79-0.14-1.6-0.2-2.4c-0.1-1.37-0.2-2.75-0.3-4.12
		c-0.06-0.84-0.12-1.68-0.17-2.52c-0.03-0.53-0.07-1.07-0.08-1.6c-0.01-0.38-0.28-0.41-0.54-0.48c-1.93-0.49-3.87-0.97-5.8-1.46
		c-1.43-0.36-2.86-0.72-4.28-1.1c-0.39-0.11-0.62-0.01-0.85,0.29c-1.33,1.82-2.66,3.63-4,5.44c-0.15,0.21-0.19,0.43-0.19,0.68
		c0.08,2.07,0.15,4.15,0.23,6.22c0.01,0.28-0.05,0.37-0.33,0.29c-0.66-0.19-1.32-0.34-1.98-0.55c-0.37-0.11-0.56-0.01-0.73,0.32
		c-0.98,1.88-1.97,3.75-2.96,5.62c-1.1,2.07-2.2,4.15-3.31,6.21c-0.18,0.33-0.22,0.64-0.15,1c0.22,1.19,0.43,2.37,0.63,3.56
		c0.05,0.3,0.16,0.46,0.51,0.48c1.35,0.08,2.7,0.12,4.03,0.34c0.78,0.13,1.09-0.22,1.45-0.77c1.24-1.86,2.52-3.7,3.79-5.54
		c0.04-0.05,0.08-0.1,0.13-0.16c0.1,0.16,0.06,0.31,0.06,0.45c0.04,3.02-0.13,6.03-0.08,9.05c0.01,0.41,0.05,0.66,0.54,0.66
		c0.37,0,0.74,0.11,1.12,0.11c0.36,0,0.45,0.1,0.32,0.45c-0.28,0.75-0.5,1.53-0.8,2.27c-0.21,0.51-0.18,0.96,0.14,1.39
		c0.31,0.42,0.37,0.81-0.02,1.22c-0.09,0.09-0.12,0.25-0.2,0.34c-0.71,0.77-0.64,1.6-0.28,2.51c0.35,0.9,0.6,1.83,0.88,2.75
		c0.08,0.25,0.17,0.36,0.48,0.3c0.76-0.14,1.53-0.21,2.3-0.33c0.26-0.04,0.32,0.13,0.41,0.3c0.6,1.2,1.19,2.4,1.8,3.6
		c0.66,1.31,1.33,2.6,1.97,3.92c0.15,0.3,0.3,0.37,0.62,0.3c1.92-0.39,3.85-0.76,5.78-1.13c0.2-0.04,0.3-0.15,0.39-0.31
		c0.85-1.58,1.69-3.17,2.54-4.75c0.11-0.2,0.05-0.34-0.07-0.51c-2.01-2.83-4-5.67-6.01-8.5c-0.21-0.3-0.28-0.51,0.04-0.77
		c0.22-0.17,0.38-0.41,0.57-0.63c0.42-0.47,0.41-0.47,0.11-1.04c-0.21-0.4-0.41-0.81-0.62-1.22c-0.1-0.2-0.12-0.32,0.16-0.34
		c0.29-0.01,0.59-0.08,0.88-0.06c0.4,0.02,0.55-0.11,0.53-0.52c-0.04-1.34-0.06-2.68-0.07-4.02c-0.01-1.76-0.01-3.51-0.01-5.27
		c0-0.43,0.01-0.44,0.38-0.21"/>
</g>
</svg>
